<svg xmlns="http://www.w3.org/2000/svg" width="200" height="200" class="icon" viewBox="0 0 1024 1024"><path fill="#009CF5" d="M788.314 1013.073H237.09c-125.163 0-226.585-101.423-226.585-226.586V235.265c0-125.163 101.422-226.586 226.585-226.586h551.223c125.163 0 226.585 101.423 226.585 226.586v551.222c0 125.163-101.422 226.586-226.585 226.586z" class="selected" data-spm-anchor-id="a313x.search_index.0.i0.29b43a81hikI5J"/><path fill="#FFF" d="M531.526 593.756H421.253l83.02-143.284 8.43-14.61 56.892-97.77 10.957-19.104 23.6-40.457c10.394-17.7 10.675-40.457-1.124-57.173-10.115-14.328-24.583-20.088-38.912-20.088-16.857 0-33.292 8.71-42.564 24.443l-8.428 14.89-8.71-14.89c-9.271-15.733-25.847-24.443-42.563-24.443-8.429 0-16.857 1.967-24.724 6.462-23.319 13.486-31.326 43.688-17.7 67.006l36.664 63.354L307.75 594.037h-96.366c-29.5.281-53.1 26.41-48.463 57.173 3.652 24.162 26.268 41.019 50.71 41.019h37.227l113.503-.281h226.586c4.214 0 8.428-1.826 10.957-5.198 12.923-17.278 22.476-44.109-9.131-71.782-16.717-14.75-39.052-21.212-61.247-21.212z"/><path fill="#FFF" d="M811.913 593.475h-94.399L591.228 375.6c-2.248-3.793-7.305-5.057-10.817-2.528-17.7 12.783-28.095 30.623-33.433 50.29-8.99 33.152-1.545 68.692 15.593 98.472l27.111 47.06 14.329 25.004 56.892 98.051 5.9 9.833 54.645 94.4c9.271 15.732 25.566 24.442 42.283 24.442 8.428 0 17.137-2.248 25.004-6.743 23.319-13.486 31.326-43.407 17.7-67.006l-31.888-55.207h39.754c29.5 0 52.96-26.69 48.183-57.454-3.933-24.021-26.269-40.738-50.57-40.738zM300.867 704.731c-17.279-7.024-33.574-6.18-46.638-2.528-7.164 1.966-13.064 6.883-16.716 13.204l-18.262 31.186c-13.767 23.6-5.62 53.52 17.7 67.006 7.866 4.495 16.576 6.743 25.004 6.743 16.857 0 33.012-8.71 42.002-24.443l20.79-35.82c5.057-8.85 6.04-19.527 2.248-28.939-4.214-10.535-12.08-20.65-26.128-26.409z"/></svg>